<svg width="50" height="50" viewBox="0 0 50 50" fill="none" xmlns="http://www.w3.org/2000/svg">
<path d="M50 45.3125C50 47.9014 47.9013 50 45.3125 50H4.6875C2.09863 50 0 47.9014 0 45.3125V19.602C8.6349e-06 18.8912 0.161669 18.1897 0.472752 17.5505C0.783835 16.9114 1.23619 16.3514 1.7956 15.9129C4.22851 14.0058 6.23906 12.4593 17.8308 4.0466C19.4738 2.84865 22.7341 -0.0338715 25 0.00030814C27.2654 -0.0342622 30.5269 2.84914 32.1692 4.0465C43.7597 12.4583 45.773 14.0069 48.2044 15.9129C48.7638 16.3514 49.2161 16.9114 49.5272 17.5505C49.8383 18.1897 50 18.8912 50 19.602V45.3125ZM43.5873 26.1128C43.337 25.7487 42.8353 25.6641 42.48 25.9266C40.249 27.5743 37.0638 29.9017 32.1692 33.4538C30.5262 34.6517 27.2659 37.534 25 37.4997C22.7333 37.5333 19.4767 34.6537 17.8308 33.4538C12.9368 29.9021 9.75127 27.5745 7.52002 25.9266C7.16465 25.6641 6.66299 25.7487 6.41269 26.1128L5.52676 27.4015C5.41192 27.5684 5.36646 27.7734 5.39997 27.9733C5.43348 28.1731 5.54334 28.3521 5.70635 28.4725C7.9414 30.1228 11.1218 32.4461 15.9898 35.9791C17.9697 37.4226 21.5098 40.6483 25 40.6249C28.4887 40.6485 32.0274 37.4246 34.01 35.9791C38.8782 32.446 42.0587 30.1227 44.2935 28.4725C44.4565 28.3521 44.5664 28.1731 44.5999 27.9733C44.6334 27.7734 44.588 27.5684 44.4731 27.4015L43.5873 26.1128Z" fill="black"/>
</svg>
