<svg width="106" height="83" viewBox="0 0 106 83" fill="none" xmlns="http://www.w3.org/2000/svg">
<path d="M84.8 10.375V51.875H21.2V10.375H84.8ZM87.45 0H18.55C14.1609 0 10.6 3.48535 10.6 7.78125V54.4688C10.6 58.7646 14.1609 62.25 18.55 62.25H87.45C91.8391 62.25 95.4 58.7646 95.4 54.4688V7.78125C95.4 3.48535 91.8391 0 87.45 0ZM104.012 67.4375H64.5109C64.0141 67.4375 63.6 67.7779 63.5338 68.2643C63.1362 70.7283 60.95 72.625 58.3 72.625H47.7C45.05 72.625 42.8638 70.7283 42.4662 68.2643C42.3834 67.7941 41.9694 67.4375 41.4891 67.4375H1.9875C0.894375 67.4375 0 68.3129 0 69.3828V75.2188C0 79.5146 3.56094 83 7.95 83H98.05C102.439 83 106 79.5146 106 75.2188V69.3828C106 68.3129 105.106 67.4375 104.012 67.4375Z" fill="#CFCFCF"/>
</svg>
