<svg width="80" height="36" viewBox="0 0 80 36" fill="none" xmlns="http://www.w3.org/2000/svg">
<path d="M12.8672 -4.73438C13.9297 -4.73438 14.9453 -4.63281 15.9141 -4.42969C16.8984 -4.24219 17.8125 -3.98438 18.6562 -3.65625C19.5 -3.34375 20.2656 -2.98437 20.9531 -2.57812C21.6406 -2.17188 22.2266 -1.76562 22.7109 -1.35938L28.8047 -5.55469L21.7969 7.89844L21.2578 0.84375C20.8047 0.53125 20.3125 0.257812 19.7812 0.0234375C19.2656 -0.226563 18.7422 -0.429687 18.2109 -0.585938C17.6953 -0.757812 17.1953 -0.890625 16.7109 -0.984375C16.2266 -1.09375 15.7969 -1.17969 15.4219 -1.24219C15.0469 -1.30469 14.7422 -1.34375 14.5078 -1.35938C14.2891 -1.39062 14.1719 -1.40625 14.1562 -1.40625C13.0938 -1.40625 12.2031 -1.28906 11.4844 -1.05469C10.7656 -0.820312 10.1797 -0.515625 9.72656 -0.140625C9.28906 0.234375 8.96875 0.664062 8.76562 1.14844C8.57812 1.61719 8.48438 2.09375 8.48438 2.57812C8.48438 3.5625 8.6875 4.39844 9.09375 5.08594C9.5 5.75781 10.1172 6.35938 10.9453 6.89062C11.7734 7.42187 12.8281 7.92188 14.1094 8.39062C15.3906 8.84375 16.8984 9.33594 18.6328 9.86719C19.6797 10.1953 20.6641 10.6406 21.5859 11.2031C22.5234 11.75 23.3359 12.3984 24.0234 13.1484C24.7109 13.8828 25.25 14.7109 25.6406 15.6328C26.0469 16.5391 26.25 17.5156 26.25 18.5625C26.25 19.7812 26.0781 20.8672 25.7344 21.8203C25.3906 22.7578 24.9297 23.5859 24.3516 24.3047C23.7891 25.0078 23.1328 25.6094 22.3828 26.1094C21.6328 26.5938 20.8516 26.9844 20.0391 27.2812C19.2422 27.5938 18.4297 27.8125 17.6016 27.9375C16.7891 28.0781 16.0234 28.1484 15.3047 28.1484C13.1953 28.1484 11.2812 27.7891 9.5625 27.0703C7.84375 26.3516 6.24219 25.3672 4.75781 24.1172L-1.33594 28.2891L5.46094 16.2422C5.64844 17.3672 5.97656 18.4531 6.44531 19.5C6.92969 20.5312 7.52344 21.4531 8.22656 22.2656C8.92969 23.0781 9.74219 23.7266 10.6641 24.2109C11.5859 24.6953 12.5938 24.9375 13.6875 24.9375C14.5625 24.9375 15.3594 24.8047 16.0781 24.5391C16.8125 24.2734 17.4375 23.9219 17.9531 23.4844C18.4688 23.0312 18.8672 22.5156 19.1484 21.9375C19.4453 21.3438 19.5938 20.7266 19.5938 20.0859C19.5938 19.1953 19.3438 18.4297 18.8438 17.7891C18.3438 17.1328 17.6875 16.5547 16.875 16.0547C16.0625 15.5391 15.1328 15.0703 14.0859 14.6484C13.0547 14.2109 11.9922 13.7656 10.8984 13.3125C9.80469 12.8594 8.73438 12.3594 7.6875 11.8125C6.65625 11.2656 5.73438 10.625 4.92188 9.89062C4.10938 9.14062 3.45312 8.26562 2.95312 7.26562C2.45312 6.26563 2.20312 5.08594 2.20312 3.72656C2.20312 2.67969 2.40625 1.65625 2.8125 0.65625C3.23438 -0.359375 3.875 -1.26562 4.73438 -2.0625C5.60938 -2.85938 6.71875 -3.5 8.0625 -3.98438C9.40625 -4.48437 11.0078 -4.73438 12.8672 -4.73438Z" transform="translate(2 7.59259)" fill="#0170BA"/>
<path d="M8.10352 12.4766V17.5566L12.5332 19.7539H-0.544922L3.81445 17.1523L5.04492 -0.917969L-0.210938 -4.11719C0.398438 -4.21094 1.01953 -4.28711 1.65234 -4.3457C2.29688 -4.4043 2.92969 -4.44531 3.55078 -4.46875C4.18359 -4.50391 4.79297 -4.52734 5.37891 -4.53906C5.97656 -4.55078 6.5332 -4.55664 7.04883 -4.55664C8.2207 -4.55664 9.38672 -4.51563 10.5469 -4.43359C11.707 -4.35156 12.8145 -4.19336 13.8691 -3.95898C14.9355 -3.73633 15.9199 -3.42578 16.8223 -3.02734C17.7363 -2.62891 18.5273 -2.11328 19.1953 -1.48047C19.8633 -0.859375 20.3848 -0.103516 20.7598 0.787109C21.1465 1.67773 21.3398 2.7207 21.3398 3.91602C21.3398 5.00586 21.1641 5.97266 20.8125 6.81641C20.4727 7.66016 20.0039 8.4043 19.4062 9.04883C18.8203 9.68164 18.1289 10.2148 17.332 10.6484C16.5352 11.082 15.6914 11.4395 14.8008 11.7207C13.9102 11.9902 12.9961 12.1836 12.0586 12.3008C11.1211 12.418 10.207 12.4766 9.31641 12.4766H8.10352ZM8.10352 -2.21875V10.7188C9.47461 10.7188 10.6348 10.584 11.584 10.3145C12.5332 10.0449 13.3242 9.70508 13.957 9.29492C14.5898 8.87305 15.082 8.41016 15.4336 7.90625C15.7969 7.39062 16.0664 6.89844 16.2422 6.42969C16.418 5.94922 16.5234 5.52148 16.5586 5.14648C16.6055 4.75977 16.6289 4.47852 16.6289 4.30273C16.6289 4.06836 16.6055 3.74609 16.5586 3.33594C16.5234 2.91406 16.4238 2.46289 16.2598 1.98242C16.0957 1.50195 15.8496 1.01562 15.5215 0.523438C15.1934 0.0195312 14.7363 -0.431641 14.1504 -0.830078C13.5645 -1.24023 12.832 -1.57422 11.9531 -1.83203C11.0859 -2.08984 10.0312 -2.21875 8.78906 -2.21875H8.10352Z" transform="translate(29 15)" fill="#0170BA"/>
<path d="M15.7969 -7.78906C17.3906 -7.78906 18.9141 -7.50781 20.3672 -6.94531C21.8203 -6.39844 23.0312 -5.59375 24 -4.53125L29.7188 -9.07812L23.1797 4.9375L22.6172 -1.88281C22.1016 -2.50781 21.5547 -3 20.9766 -3.35938C20.3984 -3.71875 19.8359 -3.98438 19.2891 -4.15625C18.7578 -4.34375 18.2734 -4.46094 17.8359 -4.50781C17.4141 -4.55469 17.0859 -4.57812 16.8516 -4.57812C15.5859 -4.57812 14.4062 -4.25781 13.3125 -3.61719C12.2344 -2.97656 11.2969 -2.05469 10.5 -0.851562C9.70312 0.335938 9.07031 1.77344 8.60156 3.46094C8.14844 5.14844 7.92188 7.03125 7.92188 9.10938C7.92188 11.1875 8.14844 13.0859 8.60156 14.8047C9.07031 16.5234 9.69531 18 10.4766 19.2344C11.2734 20.4688 12.2031 21.4297 13.2656 22.1172C14.3281 22.7891 15.4609 23.125 16.6641 23.125C17.8828 23.125 18.9297 22.8281 19.8047 22.2344C20.6797 21.625 21.3984 20.8594 21.9609 19.9375C22.5234 19.0156 22.9297 18.0078 23.1797 16.9141C23.4453 15.8203 23.5781 14.7734 23.5781 13.7734C23.5781 13.5547 23.5781 13.3516 23.5781 13.1641C23.5781 12.9609 23.5625 12.75 23.5312 12.5312C24.5469 13.2031 25.2891 13.9688 25.7578 14.8281C26.2422 15.6719 26.4844 16.5469 26.4844 17.4531C26.4844 18.2969 26.2734 19.1953 25.8516 20.1484C25.4453 21.0859 24.8359 21.9609 24.0234 22.7734C23.2109 23.5703 22.2109 24.2344 21.0234 24.7656C19.8359 25.2812 18.4609 25.5391 16.8984 25.5391C15.6328 25.5391 14.375 25.4062 13.125 25.1406C11.875 24.875 10.6797 24.4688 9.53906 23.9219C8.39844 23.3594 7.33594 22.6484 6.35156 21.7891C5.36719 20.9297 4.51562 19.9062 3.79688 18.7188C3.07812 17.5312 2.50781 16.1641 2.08594 14.6172C1.67969 13.0703 1.47656 11.3438 1.47656 9.4375C1.47656 7.57812 1.66406 5.86719 2.03906 4.30469C2.42969 2.72656 2.96094 1.30469 3.63281 0.0390625C4.32031 -1.24219 5.11719 -2.36719 6.02344 -3.33594C6.94531 -4.32031 7.92969 -5.14062 8.97656 -5.79688C10.0391 -6.45312 11.1484 -6.94531 12.3047 -7.27344C13.4766 -7.61719 14.6406 -7.78906 15.7969 -7.78906Z" transform="translate(50 9.88889)" fill="#0170BA"/>
</svg>
