<svg width="84" height="84" viewBox="0 0 84 84" fill="none" xmlns="http://www.w3.org/2000/svg">
<path d="M22.4108 22.7705C20.7631 23.2363 19.2543 24.0979 18.0158 25.2803C16.7773 26.4627 15.8468 27.9301 15.3053 29.5545L0 75.4688L2.41007 77.8789L27.0374 53.2516C26.5468 52.2245 26.2499 51.0892 26.2499 49.8752C26.2499 45.5259 29.7756 42.0002 34.1248 42.0002C38.4741 42.0002 41.9998 45.5259 41.9998 49.8752C41.9998 54.2244 38.4741 57.7501 34.1248 57.7501C32.9108 57.7501 31.7755 57.4532 30.7484 56.9626L6.12114 81.5899L8.53121 84L54.4455 68.6947C56.0699 68.1532 57.5373 67.2227 58.7197 65.9842C59.9021 64.7457 60.7637 63.2369 61.2295 61.5892L68.2497 36.7502L47.2498 15.7503L22.4108 22.7705ZM81.6929 12.1689L71.8311 2.30712C68.755 -0.769039 63.7659 -0.769039 60.6897 2.30712L51.412 11.5848L72.4152 32.588L81.6929 23.3103C84.769 20.2341 84.769 15.2467 81.6929 12.1689Z" fill="#CFCFCF"/>
</svg>
