<svg width="94" height="76" viewBox="0 0 94 76" fill="none" xmlns="http://www.w3.org/2000/svg">
<path d="M78.3333 28.1284H59.6817L42.5299 1.18081C42.3012 0.822035 41.9709 0.523878 41.5726 0.316522C41.1742 0.109166 40.7219 -2.59202e-05 40.2615 4.61529e-09L29.5722 4.6153e-09C27.8374 4.6153e-09 26.5857 1.48993 27.0622 2.98718L35.0637 28.1284H18.2774L11.2274 19.6899C10.7345 19.0995 9.95937 18.7523 9.1385 18.7523H2.61232C0.91346 18.7523 -0.333351 20.1851 0.0795329 21.6648L5.22181 37.5046L0.0795329 53.3444C-0.333351 54.8241 0.91346 56.2569 2.61232 56.2569H9.1385C9.961 56.2569 10.7345 55.9097 11.2274 55.3193L18.2774 46.8807H35.0637L27.0622 72.0205C26.5857 73.5178 27.8374 75.0092 29.5722 75.0092H40.2615C41.1982 75.0092 42.0631 74.5579 42.5282 73.8284L59.6817 46.8807H78.3333C84.1022 46.8807 94 42.6834 94 37.5046C94 32.3257 84.1022 28.1284 78.3333 28.1284Z" transform="translate(0 0.605469)" fill="#CFCFCF"/>
</svg>
